<svg xmlns="http://www.w3.org/2000/svg" width="48" height="48" viewBox="0 0 48 48">
  <rect width="48" height="48" rx="10" fill="#0d2e16"/>
  <path d="M24 8C18.477 8 14 12.477 14 18c0 8.25 10 22 10 22s10-13.75 10-22c0-5.523-4.477-10-10-10zm0 13.5c-1.933 0-3.5-1.567-3.5-3.5s1.567-3.5 3.5-3.5 3.5 1.567 3.5 3.5-1.567 3.5-3.5 3.5z" fill="#4a8a34"/>
  <path d="M24 8C18.477 8 14 12.477 14 18c0 8.25 10 22 10 22s10-13.75 10-22c0-5.523-4.477-10-10-10zm0 13.5c-1.933 0-3.5-1.567-3.5-3.5s1.567-3.5 3.5-3.5 3.5 1.567 3.5 3.5-1.567 3.5-3.5 3.5z" fill="#d4880a" opacity="0.3"/>
</svg>
